# xmcd
#
# Track frame offsets:
#	150
#	26278
#	45488
#	58286
#	107390
#	132340
#	181048
#	199144
#	220361
#	243807
#	262515
#
# Disc length: 3835 seconds
#
# Revision: 0
# Processed by: cddbd v1.5.2PL0 Copyright (c) Steve Scherf et al.
# Submitted via: audiograbber 1.83.01
#
DISCID=8a0ef90b
DTITLE=Ben Stack - Live At 202
DYEAR=2006
DGENRE=
TTITLE0=Cocaine Blues
TTITLE1=On My Mind
TTITLE2=Ain't Misbehavin'
TTITLE3=Inside Out
TTITLE4=Jelly Roll Blues
TTITLE5=You've Got Your Way
TTITLE6=Two Long Tears
TTITLE7=Time For Tears
TTITLE8=Fine Lines
TTITLE9=1, 2, 3
TTITLE10=Weekends
EXTD=
EXTT0=
EXTT1=
EXTT2=
EXTT3=
EXTT4=
EXTT5=
EXTT6=
EXTT7=
EXTT8=
EXTT9=
EXTT10=
PLAYORDER=
